<svg xmlns="http://www.w3.org/2000/svg" width="16" height="16"><path fill="#8eef97" d="M 3 0 C 1.3380034 0 0 1.3380034 0 3 L 0 13 C 0 14.661996 1.3380034 16 3 16 L 13 16 C 14.661996 16 16 14.661996 16 13 L 16 3 C 16 1.3380034 14.661996 0 13 0 L 3 0 z M 3 1 L 13 1 C 14.107998 1 15 1.8920022 15 3 L 15 13 C 15 14.107998 14.107998 15 13 15 L 3 15 C 1.8920022 15 1 14.107998 1 13 L 1 3 C 1 1.8920022 1.8920022 1 3 1 z M 7 3 L 7 4 L 6 4 L 6 5 L 10 5 L 10 4 L 9 4 L 9 3 L 7 3 z M 2 5 L 2 6 L 3 6 L 3 5 L 2 5 z M 3 6 L 3 7 L 4 7 L 4 6 L 3 6 z M 13 5 L 13 6 L 14 6 L 14 5 L 13 5 z M 13 6 L 12 6 L 12 7 L 13 7 L 13 6 z M 6 6 L 6 7 L 5 7 L 5 11 L 6 11 L 6 12 L 10 12 L 10 11 L 11 11 L 11 7 L 10 7 L 10 6 L 6 6 z M 2 8 L 2 9 L 4 9 L 4 8 L 2 8 z M 12 8 L 12 9 L 14 9 L 14 8 L 12 8 z M 3 10 L 3 11 L 4 11 L 4 10 L 3 10 z M 3 11 L 2 11 L 2 12 L 3 12 L 3 11 z M 12 10 L 12 11 L 13 11 L 13 10 L 12 10 z M 13 11 L 13 12 L 14 12 L 14 11 L 13 11 z "/></svg>