{"asset":{"version":"2.0","generator":"THREE.GLTFExporter"},"scenes":[{"name":"default","nodes":[0]}],"scene":0,"nodes":[{"matrix":[1,0,0,0,0,1,0,0,0,0,1,0,5,6,0,1],"name":"Chest-col","extras":{"data":{"name":"Chest-col","points":[{"name":"Origin","pos":{"x":0,"y":0,"z":0}}],"billboard":{"enabled":false,"y":false},"directional":{"enabled":false,"mode":"cameraAngle","angles":[]},"custom":[],"instance":{"name":"Chest-col","uuid":"2602B63A-1DA1-483F-9E4A-B06772BB2EE2","parent":null,"pos":{"x":5,"y":6,"z":0},"rot":{"x":0,"y":0,"z":0,"order":"XYZ"},"sca":{"x":1,"y":1,"z":1},"custom":[]}}},"mesh":0}],"bufferViews":[{"buffer":0,"byteOffset":0,"byteLength":35856,"target":34962,"byteStride":12},{"buffer":0,"byteOffset":35856,"byteLength":35856,"target":34962,"byteStride":12},{"buffer":0,"byteOffset":71712,"byteLength":23904,"target":34962,"byteStride":8},{"buffer":0,"byteOffset":95616,"byteLength":35856,"target":34962,"byteStride":12},{"buffer":0,"byteOffset":131472,"byteLength":1512,"target":34963},{"buffer":0,"byteOffset":132984,"byteLength":4464,"target":34963}],"buffers":[{"byteLength":137448,"uri":"data:application/octet-stream;base64,"}],"accessors":[{"bufferView":0,"componentType":5126,"count":2988,"max":[3,0,0],"min":[-5,-6,-5],"type":"VEC3"},{"bufferView":1,"componentType":5126,"count":2988,"max":[1,1,1],"min":[-1,-1,-1],"type":"VEC3"},{"bufferView":2,"componentType":5126,"count":2988,"max":[0.125,0.0625],"min":[0,0],"type":"VEC2"},{"bufferView":3,"componentType":5126,"count":2988,"max":[1,1,1],"min":[1,1,1],"type":"VEC3"},{"bufferView":4,"componentType":5123,"count":756,"max":[755],"min":[0],"type":"SCALAR"},{"bufferView":5,"componentType":5123,"count":2232,"max":[2987],"min":[756],"type":"SCALAR"}],"materials":[{"pbrMetallicRoughness":{"metallicFactor":0,"roughnessFactor":0.9,"baseColorTexture":{"index":0}},"alphaMode":"MASK","alphaCutoff":0.01,"name":"texture_2","extensions":{"KHR_materials_unlit":{}}},{"pbrMetallicRoughness":{"metallicFactor":0,"roughnessFactor":0.9,"baseColorTexture":{"index":1}},"alphaMode":"MASK","alphaCutoff":0.01,"name":"texture_1","extensions":{"KHR_materials_unlit":{}}}],"textures":[{"sampler":0,"source":0,"name":"texture_2"},{"sampler":1,"source":1,"name":"texture_1"}],"samplers":[{"magFilter":9728,"minFilter":9728,"wrapS":33071,"wrapT":33071},{"magFilter":9728,"minFilter":9728,"wrapS":33071,"wrapT":33071}],"images":[{"mimeType":"image/png","uri":"data:image/png;base64,"},{"mimeType":"image/png","uri":"data:image/png;base64,"}],"meshes":[{"primitives":[{"mode":4,"attributes":{"POSITION":0,"NORMAL":1,"TEXCOORD_0":2,"COLOR_0":3},"indices":4,"material":0},{"mode":4,"attributes":{"POSITION":0,"NORMAL":1,"TEXCOORD_0":2,"COLOR_0":3},"indices":5,"material":1}]}],"extensionsUsed":["KHR_materials_unlit"]}