<svg xmlns="http://www.w3.org/2000/svg" width="16" height="16"><path fill="#ef9f4c" d="M 8 1 C 6.6741569 1 5.4373689 1.3647032 4.3828125 2 L 2 2 C 1.4460018 2 1 2.4460018 1 3 L 1 8 C 1 11.877988 4.1220117 15 8 15 C 11.877988 15 15 11.877988 15 8 L 15 3 C 15 2.4460018 14.553997 2 14 2 L 11.617188 2 C 10.562631 1.3647032 9.3258431 1 8 1 z M 8 3 C 8.6661496 3 9.341059 3.1508527 9.9296875 3.5429688 C 10.518315 3.9350846 11 4.6664108 11 5.5 C 11 6.9485493 9.7463158 7.7230237 9.5 7.8652344 C 9.2154316 8.0295298 8.9412084 8.1318679 8.6484375 8.234375 C 8.6681764 8.2541435 8.6871907 8.2731281 8.7070312 8.2929688 C 8.9070123 8.4929497 9.2811078 8.799985 9.7128906 9.1347656 C 9.9017773 8.6062498 10 8.1127633 10 8 L 12 8 C 12 8.6954536 11.795285 9.5095092 11.384766 10.361328 C 12.044312 10.824409 12.554688 11.167969 12.554688 11.167969 L 11.445312 12.832031 C 11.445313 12.832031 10.925524 12.485639 10.251953 12.013672 C 9.6766003 12.579442 8.9294983 13 8 13 C 6.8333369 13 5.8637218 12.710781 5.1503906 12.175781 C 4.4370594 11.640784 4 10.833331 4 10 C 4 9.2388379 4.3300936 8.5580855 4.765625 8.0820312 C 4.9713648 7.857149 5.1975274 7.6693505 5.4316406 7.5058594 C 5.1796661 7.0623217 5 6.566579 5 6 C 5 5.1666691 5.3858355 4.4501019 5.9179688 3.9179688 C 6.450102 3.3858354 7.1666691 3 8 3 z M 8 5 C 7.8333339 5 7.5498958 5.1141669 7.3320312 5.3320312 C 7.1141669 5.5498958 7 5.8333339 7 6 C 7 6.1264072 7.0667919 6.3402314 7.234375 6.6171875 C 7.3875379 6.5601425 7.53671 6.5060056 7.6738281 6.4570312 C 8.0933833 6.3071794 8.4471687 6.1652679 8.5 6.1347656 C 8.8373346 5.9400052 9 5.958085 9 5.5 C 9 5.3320472 8.9816816 5.3145276 8.8203125 5.2070312 C 8.6589434 5.0995351 8.3338474 5 8 5 z M 6.6777344 9.0839844 C 6.4967446 9.2009263 6.3438607 9.3203258 6.2402344 9.4335938 C 6.0610842 9.6294125 6 9.7611651 6 10 C 6 10.166667 6.0629436 10.359219 6.3496094 10.574219 C 6.6362752 10.789219 7.1666691 11 8 11 C 8.202884 11 8.4004221 10.931957 8.5917969 10.804688 C 8.0988221 10.427669 7.6364251 10.050488 7.2929688 9.7070312 C 7.0901233 9.5041858 6.8823271 9.2968491 6.6777344 9.0839844 z "/></svg>