<svg xmlns="http://www.w3.org/2000/svg" width="16" height="16"><path fill="#ef9f4c" d="M 3 0 C 1.3380051 0 0 1.3380051 0 3 L 0 13 C 0 14.661994 1.3380051 16 3 16 L 13 16 C 14.661994 16 16 14.661994 16 13 L 16 3 C 16 1.3380051 14.661994 0 13 0 L 3 0 z M 3 1 L 13 1 C 14.107997 1 15 1.8920033 15 3 L 15 13 C 15 14.107997 14.107997 15 13 15 L 3 15 C 1.8920033 15 1 14.107997 1 13 L 1 3 C 1 1.8920033 1.8920033 1 3 1 z M 3 3 L 3 13 L 4 13 L 4 11 L 5 11 L 5 13 L 11 13 L 11 11 L 12 11 L 12 13 L 13 13 L 13 3 L 12 3 L 12 4 L 11 4 L 11 3 L 5 3 L 5 4 L 4 4 L 4 3 L 3 3 z M 4 5 L 5 5 L 5 7 L 4 7 L 4 5 z M 6 5 L 7 5 L 7 8 L 9 8 L 9 9 L 8 9 L 8 10 L 10 10 L 10 11.013672 L 7 11.013672 L 7 10 L 7 9 L 6 9 L 6 5 z M 11 5 L 12 5 L 12 7 L 11 7 L 11 5 z M 4 8 L 5 8 L 5 10 L 4 10 L 4 8 z M 11 8 L 12 8 L 12 10 L 11 10 L 11 8 z "/></svg>