<svg xmlns="http://www.w3.org/2000/svg" width="16" height="16"><path fill="#ef9f4c" d="M 3 0 C 1.3380034 0 0 1.3380034 0 3 L 0 13 C 0 14.661996 1.3380034 16 3 16 L 13 16 C 14.661996 16 16 14.661996 16 13 L 16 3 C 16 1.3380034 14.661996 0 13 0 L 3 0 z M 3 1 L 13 1 C 14.107998 1 15 1.8920022 15 3 L 15 13 C 15 14.107998 14.107998 15 13 15 L 3 15 C 1.8920022 15 1 14.107998 1 13 L 1 3 C 1 1.8920022 1.8920022 1 3 1 z M 8 2.5 A 2.5 2.5 0 0 0 5.5 5 A 2.5 2.5 0 0 0 5.9941406 6.4804688 L 4.8476562 8.4726562 A 2.5454545 2.5454545 0 0 0 4.5449219 8.4550781 A 2.5454545 2.5454545 0 0 0 2 11 A 2.5454545 2.5454545 0 0 0 4.5449219 13.544922 A 2.5454545 2.5454545 0 0 0 6.8828125 12 L 9.1953125 12 A 2.5 2.5 0 0 0 11.5 13.544922 A 2.5 2.5 0 0 0 14 11.044922 A 2.5 2.5 0 0 0 11.5 8.5449219 A 2.5 2.5 0 0 0 11.236328 8.5644531 L 10.013672 6.46875 A 2.5 2.5 0 0 0 10.5 5 A 2.5 2.5 0 0 0 8 2.5 z M 8.2890625 7.4785156 L 9.5 9.5546875 A 2.5 2.5 0 0 0 9.2304688 10 L 6.8847656 10 A 2.5454545 2.5454545 0 0 0 6.5800781 9.4707031 L 7.7265625 7.4804688 A 2.5 2.5 0 0 0 8 7.5 A 2.5 2.5 0 0 0 8.2890625 7.4785156 z "/></svg>