<svg xmlns="http://www.w3.org/2000/svg" width="16" height="16"><path fill="#ef9f4c" d="M 8 1 C 6.6741556 1 5.43737 1.3647026 4.3828125 2 L 2 2 C 1.4460012 2 1 2.4460012 1 3 L 1 8 C 1 11.877992 4.1220078 15 8 15 C 11.877992 15 15 11.877992 15 8 L 15 3 C 15 2.4460012 14.553998 2 14 2 L 11.617188 2 C 10.56263 1.3647026 9.3258444 1 8 1 z M 9 3 C 9.9835664 3 10.737359 3.3452173 11.203125 3.7226562 C 11.668891 4.1000952 11.90625 4.5761719 11.90625 4.5761719 L 10.09375 5.4238281 C 10.09375 5.4238281 10.096553 5.3999033 9.9453125 5.2773438 C 9.7940722 5.1547842 9.548398 5 9 5 C 9 5 8.708751 5.0137887 8.4472656 5.1445312 C 8.1857804 5.275274 8 5.3333354 8 6 L 8 7 L 10 7 L 10 9 L 8 9 L 8 10 C 8 10.833331 7.6389227 11.469349 7.3320312 11.929688 C 7.02514 12.390024 6.7070312 12.707031 6.7070312 12.707031 L 5.2929688 11.292969 C 5.2929687 11.292969 5.4748616 11.109973 5.6679688 10.820312 C 5.8610759 10.530652 6 10.166667 6 10 L 6 6 C 6 4.6666706 6.8142226 3.7247245 7.5527344 3.3554688 C 8.291246 2.9862128 9 3 9 3 z "/></svg>