<svg xmlns="http://www.w3.org/2000/svg" width="16" height="16"><path fill="#ef9f4c" d="M 3 0 C 1.3380051 0 0 1.3380051 0 3 L 0 5 L 1 5 L 1 3 C 1 1.8920033 1.8920033 1 3 1 L 13 1 C 14.107997 1 15 1.8920033 15 3 L 15 13 C 15 14.107997 14.107997 15 13 15 L 3 15 C 1.8920033 15 1 14.107997 1 13 L 1 10 L 0 10 L 0 13 C 0 14.661994 1.3380051 16 3 16 L 13 16 C 14.661994 16 16 14.661994 16 13 L 16 3 C 16 1.3380051 14.661994 0 13 0 L 3 0 z M 8 3 A 5 5 0 0 0 3.0742188 7.1816406 L 1.5546875 6.1679688 L 0.4453125 7.8320312 L 3.4453125 9.8320312 A 1.0001 1.0001 0 0 0 4.5546875 9.8320312 L 7.5546875 7.8320312 L 6.4453125 6.1679688 L 5.1699219 7.0195312 A 3 3 0 0 1 8 5 A 3 3 0 0 1 11 8 A 3 3 0 0 1 8 11 A 3 3 0 0 1 5.8867188 10.113281 L 4.4726562 11.527344 A 5 5 0 0 0 8 13 A 5 5 0 0 0 13 8 A 5 5 0 0 0 8 3 z "/></svg>