<svg xmlns="http://www.w3.org/2000/svg" width="16" height="16"><path fill="#ef9f4c" d="M 3 0 C 1.3380034 0 0 1.3380034 0 3 L 0 4 L 1 4 L 1 3 C 1 1.8920033 1.8920033 1 3 1 L 13 1 C 14.107997 1 15 1.8920033 15 3 L 15 4 L 16 4 L 16 3 C 16 1.3380034 14.661996 0 13 0 L 3 0 z M 7 2 L 7 14 L 9 14 L 9 2 L 7 2 z M 3 5 A 3 3 0 0 0 0 8 A 3 3 0 0 0 3 11 A 3 3 0 0 0 6 8 A 3 3 0 0 0 3 5 z M 13 5 A 3 3 0 0 0 10 8 A 3 3 0 0 0 13 11 A 3 3 0 0 0 16 8 A 3 3 0 0 0 13 5 z M 0 12 L 0 13 C 0 14.661996 1.3380034 16 3 16 L 13 16 C 14.661996 16 16 14.661996 16 13 L 16 12 L 15 12 L 15 13 C 15 14.107997 14.107997 15 13 15 L 3 15 C 1.8920033 15 1 14.107997 1 13 L 1 12 L 0 12 z "/></svg>