<svg xmlns="http://www.w3.org/2000/svg" width="16" height="16"><path fill="#ef9f4c" d="M 8 1 C 6.6741556 1 5.43737 1.3647026 4.3828125 2 L 2 2 C 1.4460012 2 1 2.4460012 1 3 L 1 8 C 1 11.877992 4.1220078 15 8 15 C 11.877992 15 15 11.877992 15 8 L 15 3 C 15 2.4460012 14.553998 2 14 2 L 11.617188 2 C 10.56263 1.3647026 9.3258444 1 8 1 z M 6 4 L 10 4 C 11.099348 4 12 4.9006519 12 6 L 12 10 C 12 11.099348 11.099348 12 10 12 L 6 12 C 4.9006519 12 4 11.099348 4 10 L 4 6 C 4 4.9006519 4.9006519 4 6 4 z M 6 5 C 5.4373531 5 5 5.4373531 5 6 L 5 10 C 5 10.562646 5.4373531 11 6 11 L 10 11 C 10.562646 11 11 10.562646 11 10 L 11 6 C 11 5.4373531 10.562646 5 10 5 L 6 5 z M 8 6 A 2 2 0 0 1 10 8 A 2 2 0 0 1 8 10 A 2 2 0 0 1 6 8 A 2 2 0 0 1 8 6 z "/></svg>