<svg xmlns="http://www.w3.org/2000/svg" width="16" height="16"><path fill="#ef9f4c" d="M 3 0 C 1.3380034 0 0 1.3380034 0 3 L 0 13 C 0 14.661996 1.3380034 16 3 16 L 13 16 C 14.661996 16 16 14.661996 16 13 L 16 3 C 16 1.3380034 14.661996 0 13 0 L 3 0 z M 3 1 L 13 1 C 14.107998 1 15 1.8920022 15 3 L 15 13 C 15 14.107998 14.107998 15 13 15 L 3 15 C 1.8920022 15 1 14.107998 1 13 L 1 3 C 1 1.8920022 1.8920022 1 3 1 z M 4 3 C 3.4460006 3 3 3.4460006 3 4 L 3 7 C 3 7.5539994 3.4460006 8 4 8 L 6 8 L 6 12 C 6 12.553999 6.4460006 13 7 13 L 12 13 C 12.553999 13 13 12.553999 13 12 L 13 7 C 13 6.4460006 12.553999 6 12 6 L 8 6 L 8 4 C 8 3.4460006 7.5539994 3 7 3 L 4 3 z "/></svg>