<svg xmlns="http://www.w3.org/2000/svg" width="16" height="16"><path fill="#ef9f4c" d="M 0 2 L 0 4 L 1 4 L 1 12 L 0 12 L 0 14 L 2 14 A 1.0001 1.0001 0 0 0 3 13 L 3 3 A 1.0001 1.0001 0 0 0 2 2 L 0 2 z M 14 2 A 1.0001 1.0001 0 0 0 13 3 L 13 13 A 1.0001 1.0001 0 0 0 14 14 L 16 14 L 16 12 L 15 12 L 15 4 L 16 4 L 16 2 L 14 2 z M 8.8320312 4.4453125 L 7.1679688 5.5546875 L 8.1328125 7 L 5 7 L 5 9 L 8.1328125 9 L 7.1679688 10.445312 L 8.8320312 11.554688 L 10.832031 8.5546875 A 1.0001 1.0001 0 0 0 10.832031 7.4453125 L 8.8320312 4.4453125 z "/></svg>