<?xml version="1.0" encoding="UTF-8" standalone="no"?><!DOCTYPE svg PUBLIC "-//W3C//DTD SVG 1.1//EN" "http://www.w3.org/Graphics/SVG/1.1/DTD/svg11.dtd"><svg width="100%" height="100%" viewBox="0 0 417 417" version="1.1" xmlns="http://www.w3.org/2000/svg" xmlns:xlink="http://www.w3.org/1999/xlink" xml:space="preserve" xmlns:serif="http://www.serif.com/" style="fill-rule:evenodd;clip-rule:evenodd;stroke-linejoin:round;stroke-miterlimit:2;"><path id="Properties" d="M243.218,10.493l-0.549,30.569c16.378,3.362 32.174,9.111 46.881,17.064l19.23,-23.771c20.295,11.717 38.383,26.895 53.446,44.847l-20.07,23.065c10.385,13.103 18.79,27.66 24.945,43.206l30.01,-5.849c8.015,22.021 12.115,45.275 12.115,68.709l-30.2,4.768c-0.467,16.713 -3.386,33.267 -8.664,49.132l26.749,14.81c-8.015,22.021 -19.822,42.47 -34.885,60.422l-26.2,-15.76c-11.1,12.503 -23.977,23.307 -38.217,32.068l10.971,28.539c-20.295,11.717 -42.484,19.793 -65.562,23.862l-9.94,-28.914c-16.54,2.443 -33.349,2.443 -49.89,0l-9.939,28.914c-23.079,-4.069 -45.267,-12.145 -65.562,-23.862l10.971,-28.539c-14.24,-8.761 -27.117,-19.565 -38.218,-32.068l-26.199,15.76c-15.064,-17.952 -26.87,-38.401 -34.885,-60.422l26.748,-14.81c-5.277,-15.865 -8.196,-32.419 -8.663,-49.132l-30.2,-4.768c-0,-23.434 4.1,-46.688 12.115,-68.709l30.01,5.849c6.155,-15.546 14.559,-30.103 24.945,-43.206l-20.07,-23.065c15.063,-17.952 33.151,-33.13 53.446,-44.847l19.229,23.771c14.708,-7.953 30.503,-13.702 46.882,-17.064l-0.549,-30.569c23.078,-4.07 46.691,-4.07 69.769,-0Zm-34.885,137.573c33.263,-0 60.268,27.005 60.268,60.267c0,33.263 -27.005,60.268 -60.268,60.268c-33.262,0 -60.267,-27.005 -60.267,-60.268c-0,-33.262 27.005,-60.267 60.267,-60.267Z" style="fill:#ff5655;"/><path id="C-corner" d="M189.21,231.551l-36.828,36.829c-20.34,-20.34 -53.317,-20.34 -73.657,-0c-20.326,20.326 -20.326,53.331 -0,73.657c20.34,20.34 53.317,20.34 73.657,-0l36.828,36.828c-40.679,40.68 -106.634,40.68 -147.314,0c-40.652,-40.652 -40.652,-106.661 0,-147.314c40.68,-40.679 106.635,-40.679 147.314,0Z" style="fill:#fff;"/></svg>