<?xml version="1.0" encoding="UTF-8" standalone="no"?><!DOCTYPE svg PUBLIC "-//W3C//DTD SVG 1.1//EN" "http://www.w3.org/Graphics/SVG/1.1/DTD/svg11.dtd"><svg width="100%" height="100%" viewBox="0 0 417 417" version="1.1" xmlns="http://www.w3.org/2000/svg" xmlns:xlink="http://www.w3.org/1999/xlink" xml:space="preserve" xmlns:serif="http://www.serif.com/" style="fill-rule:evenodd;clip-rule:evenodd;stroke-linejoin:round;stroke-miterlimit:2;"><path d="M345.454,406.25l-274.241,0c-13.897,-17.102 -21.213,-36.502 -21.213,-56.25c-0,-62.09 70.947,-112.5 158.333,-112.5c87.387,0 158.334,50.41 158.334,112.5c-0,19.748 -7.316,39.148 -21.213,56.25Z" style="fill:#ff5655;"/><ellipse cx="350.893" cy="73.385" rx="58.333" ry="59.918" style="fill:#ff5655;"/><path d="M375,92.679l-139.543,241.696l-49.701,-28.695l139.543,-241.696l49.701,28.695Z" style="fill:#ff5655;"/><path id="C-corner" d="M189.21,231.551l-36.828,36.829c-20.34,-20.34 -53.317,-20.34 -73.657,-0c-20.326,20.326 -20.326,53.331 -0,73.657c20.34,20.34 53.317,20.34 73.657,-0l36.828,36.828c-40.679,40.68 -106.634,40.68 -147.314,0c-40.652,-40.652 -40.652,-106.661 0,-147.314c40.68,-40.679 106.635,-40.679 147.314,0Z" style="fill:#fff;"/></svg>