<!DOCTYPE svg PUBLIC "-//W3C//DTD SVG 1.1//EN" "http://www.w3.org/Graphics/SVG/1.1/DTD/svg11.dtd">
<!-- Uploaded to: SVG Repo, www.svgrepo.com, Transformed by: SVG Repo Mixer Tools -->
<svg fill="#fe5554" width="128px" height="128px" viewBox="0 0 1000 1000" xmlns="http://www.w3.org/2000/svg">
<g id="SVGRepo_bgCarrier" stroke-width="0"/>
<g id="SVGRepo_tracerCarrier" stroke-linecap="round" stroke-linejoin="round"/>
<g id="SVGRepo_iconCarrier">
<path d="M884 712q-2-5-4-15-5-17-9-26-1-2-3.5-1.5T865 672v1q0 32-49 59t-132 43q-85 16-184 16t-184-16q-83-16-132-43t-49-59v-1q0-2-2.5-3t-3.5 2q-4 9-9 26-2 10-4 15-4 11-14 21-4 6-6.5 9.5T93 753q0 36 55 66.5T295 867q95 18 205 18t205-18q92-17 147-47.5t55-66.5q0-7-2.5-10.5T898 733q-10-10-14-21zm-748-90q6 31 56 56.5T322 719q83 15 178 15t178-15q80-15 130-40.5t56-56.5l1-2q0-26-8-42-4-10-17-23-11-10-15-17-7-11-9-26l-1-5q-4-39-16-70-20-58-63-112-37-46-91-76-44-24-94-34-2-9-2-17-1-6-5-9 14-7 20-19 4-8 4-17l-1-8q0-12-19-21t-46.5-9-46.5 9-19 21l-1 8q0 9 4 17 6 12 20 19-4 3-4 9 0 8-3 16-50 10-95 34-55 30-93 76-54 68-72 141-3 10-1 21 1 15 11 25 40 43 156 62 71 12 142 12 20 0 30.5 7.5t10.5 18-10.5 18T500 636q-89 0-162-13t-114-36q-44-25-45-57-5 11-18.5 24.5T143 577q-8 17-8 43 0 1 1 2zm286-243q-10 20-27 29-21 13-42 1-16-9-16-27 0-15 10.5-33t31-27 35.5-2 16 27q1 17-8 32z"/>
</g>
</svg>