<?xml version="1.0" encoding="UTF-8" standalone="no"?><!DOCTYPE svg PUBLIC "-//W3C//DTD SVG 1.1//EN" "http://www.w3.org/Graphics/SVG/1.1/DTD/svg11.dtd"><svg width="100%" height="100%" viewBox="0 0 417 417" version="1.1" xmlns="http://www.w3.org/2000/svg" xmlns:xlink="http://www.w3.org/1999/xlink" xml:space="preserve" xmlns:serif="http://www.serif.com/" style="fill-rule:evenodd;clip-rule:evenodd;stroke-linecap:round;stroke-linejoin:round;stroke-miterlimit:1.5;"><g id="Object"><path d="M208.333,24.96l158.789,91.677l-0,183.353l-158.789,91.677l-158.788,-91.677l-0,-183.353l158.788,-91.677Z" style="fill:none;stroke:#f55;stroke-width:41.67px;"/><path d="M49.545,116.637l158.788,91.702l0,177.936l0,-177.936l158.789,-91.702" style="fill:none;stroke:#f55;stroke-width:41.67px;"/></g><path id="C-corner" d="M189.21,231.551l-36.828,36.829c-20.34,-20.34 -53.317,-20.34 -73.657,-0c-20.326,20.326 -20.326,53.331 -0,73.657c20.34,20.34 53.317,20.34 73.657,-0l36.828,36.828c-40.679,40.68 -106.634,40.68 -147.314,0c-40.652,-40.652 -40.652,-106.661 0,-147.314c40.68,-40.679 106.635,-40.679 147.314,0Z" style="fill:#fff;"/></svg>