<?xml version="1.0" encoding="UTF-8" standalone="no"?><!DOCTYPE svg PUBLIC "-//W3C//DTD SVG 1.1//EN" "http://www.w3.org/Graphics/SVG/1.1/DTD/svg11.dtd"><svg width="100%" height="100%" viewBox="0 0 417 417" version="1.1" xmlns="http://www.w3.org/2000/svg" xmlns:xlink="http://www.w3.org/1999/xlink" xml:space="preserve" xmlns:serif="http://www.serif.com/" style="fill-rule:evenodd;clip-rule:evenodd;stroke-linejoin:round;stroke-miterlimit:2;"><g id="Player"><circle cx="208.333" cy="89.352" r="81.019" style="fill:#f55;"/><path d="M255.632,171.324c35.942,27.643 60.726,85.79 60.726,152.982c0,29.865 -4.991,59.205 -14.473,85.069l-187.104,0c-9.481,-25.864 -14.472,-55.204 -14.472,-85.069c-0,-67.192 24.783,-125.339 60.726,-152.982c13.312,9.595 29.65,15.25 47.298,15.25c17.648,0 33.986,-5.655 47.299,-15.25Z" style="fill:#f55;"/></g><path id="C-corner" d="M189.21,231.551l-36.828,36.829c-20.34,-20.34 -53.317,-20.34 -73.657,-0c-20.326,20.326 -20.326,53.331 -0,73.657c20.34,20.34 53.317,20.34 73.657,-0l36.828,36.828c-40.679,40.68 -106.634,40.68 -147.314,0c-40.652,-40.652 -40.652,-106.661 0,-147.314c40.68,-40.679 106.635,-40.679 147.314,0Z" style="fill:#fff;"/></svg>