{"asset":{"version":"2.0","generator":"THREE.GLTFExporter"},"scenes":[{"name":"default","nodes":[0]}],"scene":0,"nodes":[{"name":"Bottle-col","extras":{"data":{"name":"Bottle-col","points":[{"name":"Origin","pos":{"x":0,"y":0,"z":0}}],"billboard":{"enabled":false,"y":false},"directional":{"enabled":false,"mode":"cameraAngle","angles":[]},"custom":[],"instances":[{"name":"Bottle-col","uuid":"882C81EE-909E-4C37-8CC5-53E85B6F3665","parent":null,"pos":{"x":4,"y":5,"z":-2},"rot":{"x":0,"y":0,"z":0,"order":"XYZ"},"sca":{"x":1,"y":1,"z":1},"custom":[]}]}},"mesh":0}],"bufferViews":[{"buffer":0,"byteOffset":0,"byteLength":12816,"target":34962,"byteStride":12},{"buffer":0,"byteOffset":12816,"byteLength":12816,"target":34962,"byteStride":12},{"buffer":0,"byteOffset":25632,"byteLength":8544,"target":34962,"byteStride":8},{"buffer":0,"byteOffset":34176,"byteLength":12816,"target":34962,"byteStride":12},{"buffer":0,"byteOffset":46992,"byteLength":300,"target":34963},{"buffer":0,"byteOffset":47292,"byteLength":1836,"target":34963}],"buffers":[{"byteLength":49128,"uri":"data:application/octet-stream;base64,"}],"accessors":[{"bufferView":0,"componentType":5126,"count":1068,"max":[1,2,2],"min":[-4,-5,-3],"type":"VEC3"},{"bufferView":1,"componentType":5126,"count":1068,"max":[1,1,1],"min":[-1,-1,-1],"type":"VEC3"},{"bufferView":2,"componentType":5126,"count":1068,"max":[0.125,0.0625],"min":[0,0],"type":"VEC2"},{"bufferView":3,"componentType":5126,"count":1068,"max":[1,1,1],"min":[1,1,1],"type":"VEC3"},{"bufferView":4,"componentType":5123,"count":150,"max":[149],"min":[0],"type":"SCALAR"},{"bufferView":5,"componentType":5123,"count":918,"max":[1067],"min":[150],"type":"SCALAR"}],"materials":[{"pbrMetallicRoughness":{"metallicFactor":0,"roughnessFactor":0.9,"baseColorTexture":{"index":0}},"alphaMode":"MASK","alphaCutoff":0.01,"doubleSided":true,"name":"texture_2","extensions":{"KHR_materials_unlit":{}}},{"pbrMetallicRoughness":{"metallicFactor":0,"roughnessFactor":0.9,"baseColorTexture":{"index":1}},"alphaMode":"BLEND","doubleSided":true,"name":"texture_3","extensions":{"KHR_materials_unlit":{}}}],"textures":[{"sampler":0,"source":0,"name":"texture_2"},{"sampler":1,"source":1,"name":"texture_3"}],"samplers":[{"magFilter":9728,"minFilter":9728,"wrapS":33071,"wrapT":33071},{"magFilter":9728,"minFilter":9728,"wrapS":33071,"wrapT":33071}],"images":[{"mimeType":"image/png","uri":"data:image/png;base64,"},{"mimeType":"image/png","uri":"data:image/png;base64,"}],"meshes":[{"primitives":[{"mode":4,"attributes":{"POSITION":0,"NORMAL":1,"TEXCOORD_0":2,"COLOR_0":3},"indices":4,"material":0},{"mode":4,"attributes":{"POSITION":0,"NORMAL":1,"TEXCOORD_0":2,"COLOR_0":3},"indices":5,"material":1}]}],"extensionsUsed":["KHR_materials_unlit"]}