<?xml version="1.0" encoding="UTF-8" standalone="no"?>
<!-- Created with Inkscape (http://www.inkscape.org/) -->

<svg
   width="300"
   height="80"
   viewBox="0 0 79.374999 21.166667"
   version="1.1"
   id="svg291"
   inkscape:version="1.2 (dc2aedaf03, 2022-05-15)"
   sodipodi:docname="update.svg"
   xmlns:inkscape="http://www.inkscape.org/namespaces/inkscape"
   xmlns:sodipodi="http://sodipodi.sourceforge.net/DTD/sodipodi-0.dtd"
   xmlns="http://www.w3.org/2000/svg"
   xmlns:svg="http://www.w3.org/2000/svg">
  <sodipodi:namedview
     id="namedview293"
     pagecolor="#ffffff"
     bordercolor="#666666"
     borderopacity="1.0"
     inkscape:pageshadow="2"
     inkscape:pageopacity="0.0"
     inkscape:pagecheckerboard="0"
     inkscape:document-units="px"
     showgrid="false"
     width="1920px"
     units="px"
     borderlayer="true"
     inkscape:showpageshadow="false"
     inkscape:zoom="4"
     inkscape:cx="121.625"
     inkscape:cy="43.25"
     inkscape:window-width="2560"
     inkscape:window-height="1377"
     inkscape:window-x="2552"
     inkscape:window-y="-8"
     inkscape:window-maximized="1"
     inkscape:current-layer="layer1"
     inkscape:deskcolor="#d1d1d1"
     showguides="true">
    <sodipodi:guide
       position="-15.575132,19.553027"
       orientation="0,-1"
       id="guide2089"
       inkscape:locked="false" />
  </sodipodi:namedview>
  <defs
     id="defs288" />
  <g
     inkscape:label="Layer 1"
     inkscape:groupmode="layer"
     id="layer1">
    <g
       id="g2335"
       transform="matrix(0.93072355,0,0,0.92874157,17.062816,18.409989)"
       style="stroke-width:0.85374062;stroke-dasharray:none;stroke:none">
      <path
         id="rect2095"
         style="fill:#349684;fill-opacity:1;stroke:#152f2c;stroke-width:0.56916041;stroke-linecap:round;stroke-linejoin:round;stroke-dasharray:none;stroke-dashoffset:0.3;stroke-opacity:1;paint-order:normal"
         d="m 24.364404,-16.012976 a 1.7811118,1.7811118 0 0 0 -1.568379,0.938961 1.7811118,1.7811118 0 0 0 -1.557528,-0.918291 1.7811118,1.7811118 0 0 0 -1.383895,0.660942 c -1.816891,-1.243302 -4.115395,-0.49791 -5.162476,1.678967 l -2.844787,5.914368 c -1.050638,2.1842718 -0.431729,4.957652 1.388029,6.2187419 1.819758,1.26108987 4.130958,0.5177068 5.181596,-1.666565 l 1.240234,-2.5786539 h 6.335531 l 1.240234,2.5786539 c 1.050638,2.1842718 3.361322,2.92765487 5.181079,1.666565 1.819758,-1.2610899 2.439184,-4.0344701 1.388546,-6.2187419 L 30.9578,-13.652397 c -1.050637,-2.184271 -3.361838,-2.927654 -5.181596,-1.666565 -1.97e-4,1.37e-4 -3.19e-4,3.8e-4 -5.16e-4,5.17e-4 a 1.7811118,1.7811118 0 0 0 -1.411284,-0.694531 z" />
      <rect
         style="fill:#ffffff;fill-opacity:1;stroke:none;stroke-width:0.85374062;stroke-linecap:round;stroke-linejoin:round;stroke-dasharray:none;stroke-dashoffset:0.3;stroke-opacity:1;paint-order:markers stroke fill"
         id="rect2101"
         width="1.403165"
         height="4.2796535"
         x="17.394386"
         y="-13.427068"
         ry="0.75541198"
         rx="0.75380331" />
      <rect
         style="fill:#ffffff;fill-opacity:1;stroke:none;stroke-width:0.85374062;stroke-linecap:round;stroke-linejoin:round;stroke-dasharray:none;stroke-dashoffset:0.3;stroke-opacity:1;paint-order:markers stroke fill"
         id="rect2103"
         width="1.403165"
         height="4.2796535"
         x="-11.988823"
         y="-20.235798"
         ry="0.75380331"
         rx="0.75541198"
         transform="rotate(90)" />
      <ellipse
         style="fill:#ffffff;fill-opacity:1;stroke:none;stroke-width:0.85374062;stroke-linecap:round;stroke-linejoin:round;stroke-dasharray:none;stroke-dashoffset:0.3;stroke-opacity:1;paint-order:markers stroke fill"
         id="ellipse2105"
         cx="28.192503"
         cy="2.7587082"
         rx="0.82257289"
         ry="0.79261416"
         transform="rotate(-30)" />
      <ellipse
         style="fill:#ffffff;fill-opacity:1;stroke:none;stroke-width:0.85374062;stroke-linecap:round;stroke-linejoin:round;stroke-dasharray:none;stroke-dashoffset:0.3;stroke-opacity:1;paint-order:markers stroke fill"
         id="ellipse2107"
         cx="28.216581"
         cy="4.7943339"
         rx="0.82257289"
         ry="0.79261416"
         transform="rotate(-30)" />
      <ellipse
         style="fill:#ffffff;fill-opacity:1;stroke:none;stroke-width:0.85374062;stroke-linecap:round;stroke-linejoin:round;stroke-dasharray:none;stroke-dashoffset:0.3;stroke-opacity:1;paint-order:markers stroke fill"
         id="ellipse2109"
         cx="30.279696"
         cy="2.6987464"
         rx="0.82257289"
         ry="0.79261416"
         transform="rotate(-30)" />
      <ellipse
         style="fill:#ffffff;fill-opacity:1;stroke:none;stroke-width:0.85374062;stroke-linecap:round;stroke-linejoin:round;stroke-dasharray:none;stroke-dashoffset:0.3;stroke-opacity:1;paint-order:markers stroke fill"
         id="ellipse2111"
         cx="30.320311"
         cy="4.767447"
         rx="0.82257289"
         ry="0.79261416"
         transform="rotate(-30)" />
      <rect
         style="fill:#ffffff;fill-opacity:1;stroke:none;stroke-width:0.85374062;stroke-linecap:round;stroke-linejoin:round;stroke-dasharray:none;stroke-dashoffset:0.3;stroke-opacity:1;paint-order:markers stroke fill"
         id="rect2117"
         width="1.109892"
         height="2.1669323"
         x="22.090807"
         y="-10.531444"
         ry="0.52878839"
         rx="0.52766228" />
    </g>
    <path
       id="rect1625"
       style="fill:#50fa7b;fill-opacity:1;stroke:#0f451d;stroke-width:0.593381;stroke-dasharray:none;stroke-opacity:1;paint-order:normal"
       d="m 50.52517,5.3570989 c -0.643062,0 -1.160653,0.5900216 -1.160653,1.3229166 v 1.0764201 h -1.07642 c -0.732895,0 -1.322916,0.5175908 -1.322916,1.1606533 0,0.643061 0.590021,1.1611691 1.322916,1.1611691 h 1.07642 v 1.076421 c 0,0.732895 0.517591,1.322917 1.160653,1.322917 0.643062,0 1.160653,-0.590022 1.160653,-1.322917 v -1.076421 h 1.076937 c 0.732895,0 1.322916,-0.5181081 1.322916,-1.1611691 0,-0.6430625 -0.590021,-1.1606533 -1.322916,-1.1606533 H 51.685823 V 6.6800155 c 0,-0.732895 -0.517591,-1.3229166 -1.160653,-1.3229166 z" />
    <path
       id="path2678"
       style="fill:#50fa7b;fill-opacity:1;stroke:#0f451d;stroke-width:0.593381;stroke-dasharray:none;stroke-opacity:1;paint-order:normal"
       d="m 57.791691,5.357099 c -0.643062,0 -1.160653,0.5900216 -1.160653,1.3229166 v 1.0764201 h -1.07642 c -0.732895,0 -1.322916,0.5175908 -1.322916,1.1606522 0,0.643062 0.590021,1.1611701 1.322916,1.1611701 h 1.07642 v 1.076421 c 0,0.732895 0.517591,1.322917 1.160653,1.322917 0.643062,0 1.160653,-0.590022 1.160653,-1.322917 v -1.076421 h 1.076937 c 0.732895,0 1.322916,-0.5181081 1.322916,-1.1611701 0,-0.6430614 -0.590021,-1.1606522 -1.322916,-1.1606522 H 58.952344 V 6.6800156 c 0,-0.732895 -0.517591,-1.3229166 -1.160653,-1.3229166 z" />
    <rect
       style="fill:#000000;fill-opacity:1;stroke-width:0.72829;stroke-linecap:round;stroke-linejoin:round;stroke-dashoffset:0.3;paint-order:markers stroke fill"
       id="rect413"
       width="10.200269"
       height="8.7847834"
       x="-21.316095"
       y="3.0372066" />
    <rect
       style="fill:#000000;fill-opacity:1;stroke-width:0.622475;stroke-linecap:round;stroke-linejoin:round;stroke-dashoffset:0.3;paint-order:markers stroke fill"
       id="rect415"
       width="7.9928446"
       height="15.312933"
       x="-20.546837"
       y="12.977094"
       ry="4.375123"
       transform="matrix(0.82192626,0.56959391,-0.43346431,0.90117073,0,0)"
       rx="4.375123" />
    <rect
       style="fill:#000000;fill-opacity:1;stroke-width:0.622475;stroke-linecap:round;stroke-linejoin:round;stroke-dashoffset:0.3;paint-order:markers stroke fill"
       id="rect471"
       width="7.9928446"
       height="15.312933"
       x="9.1578636"
       y="-5.7980561"
       ry="4.375123"
       transform="matrix(-0.82192626,0.56959391,0.43346431,0.90117073,0,0)"
       rx="4.375123" />
    <rect
       style="fill:#ffffff;fill-opacity:1;stroke:none;stroke-width:1.32292;stroke-linecap:round;stroke-linejoin:round;stroke-dasharray:none;stroke-dashoffset:0.3;stroke-opacity:1;paint-order:markers stroke fill"
       id="rect1137"
       width="1.403165"
       height="4.2796535"
       x="-22.240166"
       y="3.9990206"
       ry="0.70158249"
       rx="0.70158249" />
    <rect
       style="fill:#ffffff;fill-opacity:1;stroke:none;stroke-width:1.32292;stroke-linecap:round;stroke-linejoin:round;stroke-dasharray:none;stroke-dashoffset:0.3;stroke-opacity:1;paint-order:markers stroke fill"
       id="rect1295"
       width="1.403165"
       height="4.2796535"
       x="5.4372649"
       y="19.398754"
       ry="0.70158249"
       rx="0.70158249"
       transform="rotate(90)" />
    <ellipse
       style="fill:#ffffff;fill-opacity:1;stroke:none;stroke-width:1.32292;stroke-linecap:round;stroke-linejoin:round;stroke-dasharray:none;stroke-dashoffset:0.3;stroke-opacity:1;paint-order:markers stroke fill"
       id="ellipse1297"
       cx="-13.849753"
       cy="-1.3102485"
       rx="0.82257289"
       ry="0.79261416"
       transform="rotate(-30)" />
    <ellipse
       style="fill:#ffffff;fill-opacity:1;stroke:none;stroke-width:1.32292;stroke-linecap:round;stroke-linejoin:round;stroke-dasharray:none;stroke-dashoffset:0.3;stroke-opacity:1;paint-order:markers stroke fill"
       id="ellipse1299"
       cx="-13.825675"
       cy="0.72537726"
       rx="0.82257289"
       ry="0.79261416"
       transform="rotate(-30)" />
    <ellipse
       style="fill:#ffffff;fill-opacity:1;stroke:none;stroke-width:1.32292;stroke-linecap:round;stroke-linejoin:round;stroke-dasharray:none;stroke-dashoffset:0.3;stroke-opacity:1;paint-order:markers stroke fill"
       id="ellipse1301"
       cx="-11.762562"
       cy="-1.3702103"
       rx="0.82257289"
       ry="0.79261416"
       transform="rotate(-30)" />
    <ellipse
       style="fill:#ffffff;fill-opacity:1;stroke:none;stroke-width:1.32292;stroke-linecap:round;stroke-linejoin:round;stroke-dasharray:none;stroke-dashoffset:0.3;stroke-opacity:1;paint-order:markers stroke fill"
       id="ellipse1303"
       cx="-11.721946"
       cy="0.69849032"
       rx="0.82257289"
       ry="0.79261416"
       transform="rotate(-30)" />
    <circle
       style="fill:#000000;fill-opacity:1;stroke:none;stroke-width:1.32292;stroke-linecap:round;stroke-linejoin:round;stroke-dasharray:none;stroke-dashoffset:0.3;stroke-opacity:1;paint-order:markers stroke fill"
       id="path2085"
       cx="-17.863199"
       cy="3.3752983"
       r="1.7811118" />
    <circle
       style="fill:#000000;fill-opacity:1;stroke:none;stroke-width:1.32292;stroke-linecap:round;stroke-linejoin:round;stroke-dasharray:none;stroke-dashoffset:0.3;stroke-opacity:1;paint-order:markers stroke fill"
       id="circle2087"
       cx="-14.737003"
       cy="3.3542202"
       r="1.7811118" />
    <rect
       style="fill:#ffffff;fill-opacity:1;stroke:none;stroke-width:1.32292;stroke-linecap:round;stroke-linejoin:round;stroke-dasharray:none;stroke-dashoffset:0.3;stroke-opacity:1;paint-order:markers stroke fill"
       id="rect2091"
       width="0.98221546"
       height="1.917659"
       x="-16.946886"
       y="7.1795278"
       ry="0.49110773"
       rx="0.49110773" />
  </g>
</svg>
