<?xml version="1.0" encoding="UTF-8" standalone="no"?><!DOCTYPE svg PUBLIC "-//W3C//DTD SVG 1.1//EN" "http://www.w3.org/Graphics/SVG/1.1/DTD/svg11.dtd"><svg width="100%" height="100%" viewBox="0 0 417 417" version="1.1" xmlns="http://www.w3.org/2000/svg" xmlns:xlink="http://www.w3.org/1999/xlink" xml:space="preserve" xmlns:serif="http://www.serif.com/" style="fill-rule:evenodd;clip-rule:evenodd;stroke-linejoin:round;stroke-miterlimit:2;"><path d="M208.333,0c114.983,0 208.334,93.351 208.334,208.333c-0,114.983 -93.351,208.334 -208.334,208.334c-114.982,-0 -208.333,-93.351 -208.333,-208.334c-0,-114.982 93.351,-208.333 208.333,-208.333Zm-21.258,338.42l-0,35.73l42.517,-0l-0,-35.73c26.34,-4.281 51.629,-16.578 71.94,-36.888l-27.96,-27.96c-12.569,12.57 -27.863,20.754 -43.98,24.554l-0,-179.585c16.117,3.799 31.411,11.984 43.98,24.553l27.96,-27.959c-20.311,-20.311 -45.6,-32.607 -71.94,-36.889l-0,-35.755l-42.517,0l-0,35.755c-26.34,4.282 -51.63,16.578 -71.94,36.889c-51.438,51.437 -51.438,134.959 -0,186.397c20.31,20.31 45.6,32.607 71.94,36.888Zm-0,-219.879c13.634,-3.87 42.517,-0 42.517,-0l-0,179.585c-0,-0 -28.883,3.87 -42.517,-0c-14.416,-4.092 -31.411,-11.984 -43.981,-24.554c-36.006,-36.006 -36.006,-94.471 0,-130.478c12.57,-12.569 29.565,-20.461 43.981,-24.553Z" style="fill:#ff5655;"/></svg>